<?xml version="1.0" encoding="utf-8"?>
<!-- Generator: Adobe Illustrator 15.0.0, SVG Export Plug-In . SVG Version: 6.00 Build 0)  -->
<!DOCTYPE svg PUBLIC "-//W3C//DTD SVG 1.1//EN" "http://www.w3.org/Graphics/SVG/1.1/DTD/svg11.dtd">
<svg version="1.1" id="Layer_1" xmlns="http://www.w3.org/2000/svg" xmlns:xlink="http://www.w3.org/1999/xlink" x="0px" y="0px"
	 width="108.595px" height="53.953px" viewBox="0 0.047 108.595 53.953" enable-background="new 0 0.047 108.595 53.953"
	 xml:space="preserve">
<g>
	<path fill="#308AC2" d="M108.19,28.561L108.19,28.561v-0.002c0,0,0,0,0-0.004c0-0.217-0.006-0.436-0.018-0.654
		c0-0.002,0-0.008,0-0.01c-0.011-0.221-0.025-0.438-0.047-0.647c0-0.006,0-0.008,0-0.008c-0.664-6.649-6.277-11.843-13.104-11.843
		c-7.27,0-13.163,5.896-13.163,13.168c0,7.269,5.895,13.166,13.163,13.166c3.155,0,6.055-1.11,8.322-2.963v2.963l2.394-0.699
		c1.691-0.488,2.505-1.613,2.447-3.368C108.187,37.658,108.19,28.604,108.19,28.561z M95.023,36.247
		c-4.234,0-7.687-3.45-7.687-7.687c0-4.238,3.451-7.687,7.687-7.687c4.242,0,7.69,3.447,7.69,7.687
		C102.714,32.797,99.266,36.247,95.023,36.247z"/>
	<path fill="#308AC2" d="M18.178,12.311c-0.487,0.488-0.737,1.057-0.737,1.699v10.322H5.227V14.01c0-0.643-0.247-1.211-0.739-1.699
		c-0.472-0.479-1.072-0.717-1.781-0.717H0v30.133h2.705c0.709,0,1.311-0.244,1.781-0.717c0.492-0.488,0.739-1.063,0.739-1.703
		V29.008H17.44v10.299c0,0.642,0.25,1.215,0.737,1.703c0.476,0.473,1.074,0.717,1.786,0.717h2.701V11.594h-2.701
		C19.252,11.594,18.653,11.832,18.178,12.311z"/>
	<path fill="#308AC2" d="M38.127,20.875c4.236,0,7.69,3.447,7.69,7.686c0,4.236-3.454,7.688-7.69,7.688
		c-4.237,0-7.688-3.45-7.688-7.688C30.44,24.322,33.89,20.875,38.127,20.875 M38.127,15.392c-7.271,0-13.165,5.896-13.165,13.168
		c0,7.269,5.894,13.166,13.165,13.166c7.273,0,13.165-5.897,13.165-13.166C51.292,21.288,45.401,15.392,38.127,15.392L38.127,15.392
		z"/>
	<path fill="#42B187" d="M76.429,30.094c-1.061,0-1.968,0.629-2.388,1.529c-0.026,0.061-0.05,0.123-0.077,0.184
		c-1.26,2.785-4.073,4.652-7.204,4.652c-4.358,0-7.904-3.543-7.904-7.9s3.546-7.901,7.904-7.901c2.814,0,5.334,1.506,6.789,3.848
		c0.331,0.538,1.677,2.108,3.625,0.988c1.765-1.013,1.282-3.036,0.955-3.595C75.773,17.9,71.486,15.39,66.76,15.39
		c-7.262,0-13.168,5.907-13.168,13.168c0,7.26,5.906,13.168,13.168,13.168c5.258,0,9.969-3.156,12.048-7.86
		c0.033-0.072,0.063-0.146,0.091-0.218c0.105-0.287,0.171-0.594,0.171-0.912C79.069,31.277,77.886,30.094,76.429,30.094z"/>
</g>
</svg>
